<svg width="36" height="24" viewBox="0 0 36 24" fill="none" xmlns="http://www.w3.org/2000/svg">
<path d="M19.0938 12.7365C21.2533 12.7365 23.0202 15.0063 23.0202 15.5738C23.0202 16.1412 21.2533 18.0328 19.0938 18.0328C16.9343 18.0328 15.3637 15.5738 15.3637 15.5738C15.3637 15.5738 16.9343 12.7364 19.0938 12.7365Z" fill="#FFFDFB"/>
<path d="M13.0078 13.3039L15.3637 15.5738M15.3637 15.5738L13.0078 17.8436M15.3637 15.5738C15.3637 15.5738 16.9343 18.0328 19.0938 18.0328C21.2533 18.0328 23.0202 16.1412 23.0202 15.5738C23.0202 15.0063 21.2533 12.7365 19.0938 12.7365C16.9343 12.7364 15.3637 15.5738 15.3637 15.5738Z" stroke="#FFFDFB" stroke-width="2" stroke-linecap="round" stroke-linejoin="round"/>
<path d="M10.8045 4.55528L10.8044 4.55551C10.6455 5.12635 10.1608 5.53847 9.58332 5.63189C9.55626 5.64881 9.51731 5.67561 9.46687 5.71388C9.35089 5.80185 9.20125 5.92974 9.04203 6.08157C8.96976 6.1505 8.89804 6.22193 8.82854 6.29439H27.2763C27.2016 6.19119 27.1266 6.09207 27.0546 6.00043C26.9358 5.8494 26.8304 5.72574 26.7529 5.64278C26.7439 5.63313 26.7356 5.6244 26.728 5.61654C26.1869 5.4992 25.7394 5.09945 25.5883 4.5552C25.5466 4.40542 25.3354 4.17159 24.926 3.9774C24.533 3.79096 24.125 3.72291 23.8919 3.76105L23.8915 3.76112C23.2861 3.85966 22.6687 3.59496 22.3403 3.07206C22.302 3.01123 22.2155 2.92649 22.058 2.84002C21.9049 2.75597 21.7119 2.6855 21.5014 2.63826C21.0567 2.53846 20.6557 2.56699 20.4623 2.65819L20.4622 2.65822C19.906 2.92037 19.2393 2.83046 18.7771 2.42346L10.8045 4.55528ZM10.8045 4.55528C10.8476 4.40014 11.0609 4.16681 11.4708 3.9746M10.8045 4.55528L11.4708 3.9746M11.4708 3.9746C11.8648 3.78984 12.2727 3.72396 12.501 3.76107L11.4708 3.9746ZM14.0523 3.0719C14.0523 3.07196 14.0523 3.07202 14.0522 3.07208L13.6289 2.80605L14.0523 3.0719ZM14.0523 3.0719C14.1642 2.89396 14.4029 2.72216 14.7165 2.63294C15.029 2.54405 15.3321 2.56119 15.5378 2.65816C16.0938 2.92043 16.7609 2.83043 17.2231 2.4234C17.3865 2.2796 17.6705 2.17955 17.9995 2.17937C18.3285 2.17919 18.6127 2.27886 18.777 2.4234L14.0523 3.0719ZM9.39726 4.64835L9.39714 4.64837C9.25459 4.66456 9.13346 4.73586 9.08563 4.76421C9.01426 4.80653 8.93807 4.85985 8.86253 4.91715C8.71008 5.03279 8.53167 5.18646 8.35192 5.35787C8.0014 5.69213 7.59566 6.14144 7.37019 6.55509L7.05701 7.12964H6.86629L6.91783 6.9068C7.32317 5.15423 8.9292 4.62098 9.12153 4.55952L9.31833 4.49663L9.41334 4.31317C10.2817 2.63629 12.0835 2.54812 12.2884 2.5412L12.4911 2.53435L12.6318 2.38826C13.6946 1.28422 15.1397 1.26962 15.9171 1.46185L16.1118 1.50998L16.2857 1.4103C17.6344 0.637532 19.0268 1.01654 19.7142 1.41032L19.8881 1.50999L20.0828 1.46185C20.8599 1.26962 22.3047 1.28397 23.3678 2.38826L23.5085 2.53443L23.7113 2.5412C23.8666 2.54639 24.9181 2.59726 25.8006 3.33059C25.6544 3.22912 25.5015 3.14359 25.3546 3.07391C24.853 2.83593 24.2331 2.69206 23.7308 2.77411C23.5071 2.81052 23.2937 2.70989 23.187 2.54011L23.187 2.54004C23.0273 2.2858 22.7848 2.09823 22.5392 1.9634C22.2891 1.82614 22.0047 1.72632 21.7204 1.66252C21.1755 1.54027 20.5172 1.52674 20.0358 1.75368C19.8354 1.84812 19.5968 1.81284 19.4379 1.6729L19.4378 1.67284C19.0424 1.32481 18.4981 1.1791 17.999 1.17937C17.5 1.17964 16.9564 1.32588 16.5623 1.67287L16.5623 1.6729C16.4033 1.81288 16.1644 1.84808 15.9644 1.75372L15.9644 1.75371C15.4856 1.52793 14.9228 1.53455 14.4429 1.67111C13.9641 1.80733 13.484 2.09687 13.2055 2.54002L13.2054 2.5402C13.0988 2.70994 12.8854 2.81062 12.6622 2.77416L12.662 2.77412C12.1675 2.69355 11.5493 2.83332 11.0462 3.06921C10.5589 3.29771 10.0042 3.70014 9.84098 4.28751C9.78951 4.47198 9.62049 4.62305 9.39726 4.64835ZM29.1333 7.12964H28.943L28.6293 6.55486C28.4058 6.14541 28.1 5.71204 27.8406 5.38225C27.7103 5.21661 27.5862 5.07 27.484 4.96047C27.4338 4.90672 27.3822 4.8546 27.3335 4.81203C27.3098 4.79133 27.278 4.76502 27.2412 4.7406L27.2393 4.73936C27.2183 4.72531 27.1253 4.66315 26.9955 4.64838L26.9953 4.64836C26.772 4.62303 26.6029 4.47176 26.5518 4.28759L26.5518 4.28749C26.5431 4.25637 26.5334 4.22576 26.5225 4.19565C26.5443 4.23389 26.5656 4.27301 26.5863 4.31303L26.6813 4.49631L26.8779 4.55921C27.0675 4.61987 28.6752 5.15043 29.0818 6.90689L29.1333 7.12964ZM32.647 7.55442L32.6297 7.44032C32.7074 7.51446 32.759 7.61052 32.7743 7.71342L32.7743 7.71346L34.9677 22.4872C34.9778 22.5558 34.9719 22.6258 34.9504 22.6923L34.9406 22.6278L32.647 7.55442ZM1.05925 22.6278L1.04944 22.6922C1.02802 22.6259 1.02217 22.556 1.03237 22.4876L1.0324 22.4874L3.22553 7.71345L3.22554 7.71342C3.2408 7.61052 3.29244 7.51446 3.37018 7.44032L3.35282 7.55442L1.05925 22.6278ZM9.61687 5.61297C9.61677 5.61318 9.61369 5.61487 9.60794 5.61735C9.61409 5.614 9.61696 5.61276 9.61687 5.61297ZM23.8113 3.26877L23.8113 3.2688L23.8113 3.26877Z" fill="#FFFDFB" stroke="#FFFDFB" stroke-width="0.999999"/>
</svg>
